<?xml version="1.0" standalone="no"?>
<!DOCTYPE svg PUBLIC "-//W3C//DTD SVG 20010904//EN"
 "http://www.w3.org/TR/2001/REC-SVG-20010904/DTD/svg10.dtd">
<svg version="1.0" xmlns="http://www.w3.org/2000/svg"
 width="500.000000pt" height="500.000000pt" viewBox="0 0 500.000000 500.000000"
 preserveAspectRatio="xMidYMid meet">
<metadata>
Created by potrace 1.14, written by Peter Selinger 2001-2017
</metadata>
<g transform="translate(0.000000,500.000000) scale(0.100000,-0.100000)"
fill="#000000" stroke="none">
<path d="M3111 2766 l-343 -344 183 -5 c219 -6 300 -23 458 -99 87 -42 116
-62 181 -127 61 -61 87 -96 118 -162 23 -46 44 -96 47 -111 7 -28 7 -28 96
-28 l89 0 0 270 0 269 101 3 101 3 -344 337 -345 337 -342 -343z m641 -3 c159
-159 288 -291 288 -295 0 -5 -31 -8 -70 -8 l-70 0 0 -265 0 -265 -55 0 c-39 0
-55 4 -55 13 0 28 -79 175 -123 228 -93 113 -247 205 -427 254 -72 20 -129 28
-234 32 l-138 6 293 293 c162 162 296 294 299 294 3 0 134 -129 292 -287z"/>
<path d="M3360 2625 c0 -34 1 -35 40 -35 39 0 40 1 40 35 0 34 -1 35 -40 35
-39 0 -40 -1 -40 -35z"/>
<path d="M3470 2625 c0 -34 1 -35 40 -35 39 0 40 1 40 35 0 34 -1 35 -40 35
-39 0 -40 -1 -40 -35z"/>
<path d="M3360 2515 c0 -34 1 -35 40 -35 39 0 40 1 40 35 0 34 -1 35 -40 35
-39 0 -40 -1 -40 -35z"/>
<path d="M3470 2515 c0 -34 1 -35 40 -35 39 0 40 1 40 35 0 34 -1 35 -40 35
-39 0 -40 -1 -40 -35z"/>
<path d="M1030 2115 l0 -135 25 0 c23 0 25 4 25 40 0 40 0 40 38 40 34 0 41
-4 61 -40 16 -30 29 -40 47 -40 30 0 30 2 -2 49 l-25 39 25 25 c37 37 36 98 0
132 -24 22 -36 25 -110 25 l-84 0 0 -135z m166 70 c9 -13 13 -33 9 -44 -6 -21
-52 -41 -96 -41 -28 0 -29 1 -29 55 l0 55 50 0 c42 0 52 -4 66 -25z"/>
<path d="M1310 2115 l0 -135 100 0 c93 0 100 1 100 20 0 18 -7 20 -75 20 l-75
0 0 40 0 40 65 0 c58 0 65 2 65 20 0 18 -7 20 -65 20 l-65 0 0 35 0 35 75 0
c68 0 75 2 75 20 0 19 -7 20 -100 20 l-100 0 0 -135z"/>
<path d="M1570 2115 l0 -135 25 0 c24 0 24 2 27 92 l3 92 69 -92 c53 -71 73
-92 92 -92 l24 0 0 135 0 135 -25 0 c-24 0 -24 -2 -27 -92 l-3 -92 -69 92
c-53 71 -73 92 -92 92 l-24 0 0 -135z"/>
<path d="M1850 2230 c0 -17 7 -20 45 -20 l45 0 0 -115 c0 -108 1 -115 20 -115
19 0 20 7 20 115 l0 115 45 0 c38 0 45 3 45 20 0 19 -7 20 -110 20 -103 0
-110 -1 -110 -20z"/>
<path d="M2170 2206 c-11 -25 -29 -66 -40 -91 -11 -25 -29 -65 -40 -90 l-19
-45 25 0 c19 0 28 7 35 30 11 30 12 30 83 30 70 0 72 -1 83 -30 8 -22 18 -30
37 -30 29 0 34 -18 -46 165 -39 88 -47 100 -71 103 -24 3 -30 -2 -47 -42z m89
-113 c1 -9 -14 -13 -44 -13 -25 0 -45 5 -45 11 0 6 10 33 22 62 l22 51 22 -50
c13 -27 23 -55 23 -61z"/>
<path d="M2400 2115 l0 -135 80 0 c73 0 80 2 80 20 0 18 -7 20 -60 20 l-60 0
0 115 c0 108 -1 115 -20 115 -19 0 -20 -7 -20 -135z"/>
<path d="M2602 2144 c3 -105 3 -106 36 -135 26 -24 41 -29 82 -29 41 0 56 5
82 29 33 29 33 30 36 135 l4 106 -26 0 -26 0 0 -95 c0 -108 -14 -135 -70 -135
-56 0 -70 27 -70 135 l0 95 -26 0 -26 0 4 -106z"/>
<path d="M2910 2115 c0 -128 1 -135 20 -135 17 0 20 7 20 40 0 40 0 40 40 40
35 0 43 -4 66 -40 19 -29 34 -40 51 -40 24 0 24 1 11 23 -43 66 -44 67 -27 80
46 35 51 97 10 138 -28 27 -34 29 -110 29 l-81 0 0 -135z m158 83 c17 -17 15
-63 -4 -79 -9 -7 -37 -13 -62 -13 l-47 -1 -3 53 -3 52 53 0 c30 0 59 -5 66
-12z"/>
<path d="M3190 2149 c0 -111 7 -132 50 -154 56 -29 145 -11 170 34 5 11 10 65
10 120 0 94 -1 101 -20 101 -18 0 -20 -7 -20 -89 0 -74 -3 -92 -21 -115 -27
-34 -71 -35 -104 -1 -23 22 -25 32 -25 115 0 83 -1 90 -20 90 -19 0 -20 -7
-20 -101z"/>
</g>
</svg>
